<?xml version="1.0" encoding="UTF-8"?>
<!DOCTYPE svg PUBLIC "-//W3C//DTD SVG 1.1//EN" "http://www.w3.org/Graphics/SVG/1.1/DTD/svg11.dtd">
<!-- Creator: CorelDRAW -->
<svg xmlns="http://www.w3.org/2000/svg" xml:space="preserve" width="6.82666in" height="6.82666in" style="shape-rendering:geometricPrecision; text-rendering:geometricPrecision; image-rendering:optimizeQuality; fill-rule:evenodd; clip-rule:evenodd"
viewBox="0 0 6.82666 6.82666"
 xmlns:xlink="http://www.w3.org/1999/xlink">
 <defs>
  <style type="text/css">
   <![CDATA[
    .fil11 {fill:none}
    .fil4 {fill:black}
    .fil7 {fill:#353535}
    .fil5 {fill:#3A3A3A}
    .fil10 {fill:#4B4B4B}
    .fil9 {fill:#545454}
    .fil3 {fill:#B8B8B8}
    .fil2 {fill:#C4C4C4}
    .fil1 {fill:#CFCFD0}
    .fil8 {fill:#E7E7E7}
    .fil6 {fill:white}
    .fil0 {fill:#818181;fill-rule:nonzero}
   ]]>
  </style>
 </defs>
 <g id="Layer_x0020_1">
  <metadata id="CorelCorpID_0Corel-Layer"/>
  <g id="_367197616">
   <path id="_367198312" class="fil0" d="M1.29333 0.853331l4.24001 0c0.121114,0 0.231138,0.0494685 0.310831,0.129165 0.0796969,0.0796929 0.129165,0.189717 0.129165,0.310831l0 4.24001c0,0.121114 -0.0494685,0.231138 -0.129165,0.310831 -0.0796929,0.0796969 -0.189717,0.129165 -0.310831,0.129165l-4.24001 0c-0.121114,0 -0.231138,-0.0494685 -0.310831,-0.129165 -0.0796969,-0.0796929 -0.129165,-0.189717 -0.129165,-0.310831l0 -4.24001c0,-0.121114 0.0494685,-0.231138 0.129165,-0.310831 0.0796929,-0.0796969 0.189717,-0.129165 0.310831,-0.129165z"/>
   <path id="_367487288" class="fil1" d="M1.29333 0.919996c-0.099315,0 -0.193524,0.0394724 -0.263693,0.109638 -0.0701654,0.0701693 -0.109638,0.164378 -0.109638,0.263693l0 4.24001c0,0.099315 0.0394724,0.193524 0.109638,0.263693 0.0701693,0.0701654 0.164378,0.109638 0.263693,0.109638l4.24001 0c0.099315,0 0.193524,-0.0394724 0.263693,-0.109638 0.0701654,-0.0701693 0.109638,-0.164378 0.109638,-0.263693l0 -4.24001c0,-0.099315 -0.0394724,-0.193524 -0.109638,-0.263693 -0.0701693,-0.0701654 -0.164378,-0.109638 -0.263693,-0.109638l-4.24001 0z"/>
   <g>
    <g>
     <path id="_367487888" class="fil2" d="M1.96881 1.20713c-0.0382598,-0.0404409 -0.0587677,-0.0404409 -0.0392205,0 -0.0195472,-0.0404409 0.00096063,-0.11785 0.0392205,-0.148 -0.0382598,0.0301496 -0.0177441,0.107559 0.0392165,0.148 -0.0569606,-0.0404409 -0.0774764,-0.0404409 -0.0392165,0z"/>
     <path id="_367487480" class="fil2" d="M1.55746 2.12037c0.104409,0.104413 0.244551,0.162457 0.392232,0.162457 0.147677,0 0.287819,-0.0580433 0.392228,-0.162457 0.104409,-0.104409 0.162457,-0.244547 0.162457,-0.392228 0,-0.147681 -0.0580472,-0.287819 -0.162457,-0.392228 -0.104409,-0.104413 -0.244551,-0.162461 -0.392228,-0.162461 -0.147681,0 -0.287823,0.0580472 -0.392232,0.162461 -0.104409,0.104409 -0.162457,0.244547 -0.162457,0.392228 0,0.147681 0.0580472,0.287819 0.162457,0.392228z"/>
     <path id="_367487072" class="fil2" d="M2.10301 1.22983c-0.0264882,-0.0489685 -0.0462992,-0.0542756 -0.0378819,-0.0101496 -0.00841732,-0.044126 0.0314291,-0.113591 0.076189,-0.132811 -0.0447598,0.0192205 -0.0449803,0.0993031 -0.000425197,0.15311 -0.0445551,-0.0538071 -0.0643701,-0.0591181 -0.0378819,-0.0101496z"/>
     <path id="_367486880" class="fil2" d="M2.22676 1.2865c-0.0129094,-0.0541535 -0.0306732,-0.0644094 -0.0339646,-0.0196102 0.00329134,-0.0447992 0.0597598,-0.101583 0.107965,-0.108563 -0.0482047,0.00698031 -0.0691457,0.0842756 -0.0400354,0.147783 -0.0291102,-0.0635079 -0.046874,-0.0737638 -0.0339646,-0.0196102z"/>
     <path id="_367486496" class="fil2" d="M2.33163 1.37326c0.00154331,-0.0556496 -0.0129606,-0.0701535 -0.0277323,-0.0277323 0.0147717,-0.0424213 0.0840157,-0.0826535 0.132386,-0.0769213 -0.0483701,-0.00573228 -0.0886024,0.0635118 -0.0769213,0.132386 -0.0116811,-0.068874 -0.026189,-0.0833819 -0.0277323,-0.0277323z"/>
     <path id="_367486928" class="fil2" d="M2.41046 1.4842c0.0158937,-0.0533543 0.0056378,-0.0711181 -0.0196102,-0.0339646 0.025248,-0.0371535 0.102543,-0.0580945 0.147783,-0.0400354 -0.0452402,-0.0180591 -0.10202,0.0384134 -0.108567,0.107965 0.00654724,-0.0695512 -0.0037126,-0.0873189 -0.0196063,-0.0339646z"/>
     <path id="_367494488" class="fil2" d="M2.4579 1.61177c0.0291614,-0.0474213 0.0238543,-0.0672362 -0.0101496,-0.0378819 0.0340039,-0.0293543 0.114083,-0.0295748 0.15311,-0.000425197 -0.0390276,-0.0291496 -0.108488,0.0107008 -0.132811,0.076189 0.0243228,-0.0654882 0.0190118,-0.0853031 -0.0101496,-0.0378819z"/>
     <path id="_367494272" class="fil2" d="M2.4707 1.74727c0.0404409,-0.0382598 0.0404409,-0.0587717 0,-0.0392205 0.0404409,-0.0195512 0.11785,0.00096063 0.148004,0.0392205 -0.0301535,-0.0382598 -0.107563,-0.0177441 -0.148004,0.0392165 0.0404409,-0.0569606 0.0404409,-0.0774764 0,-0.0392165z"/>
     <path id="_367494440" class="fil2" d="M2.448 1.88147c0.0489685,-0.0264882 0.0542756,-0.0462992 0.0101496,-0.0378819 0.044126,-0.00841732 0.113591,0.0314291 0.132811,0.076185 -0.0192205,-0.0447559 -0.0993031,-0.0449764 -0.15311,-0.00042126 0.0538071,-0.0445551 0.0591181,-0.0643701 0.0101496,-0.0378819z"/>
     <path id="_367493552" class="fil2" d="M2.39134 2.00522c0.0541535,-0.0129134 0.0644094,-0.0306772 0.0196102,-0.0339646 0.0447992,0.0032874 0.101583,0.0597559 0.108563,0.107965 -0.00698031,-0.0482087 -0.0842756,-0.0691457 -0.147783,-0.0400394 0.0635079,-0.0291063 0.0737638,-0.046874 0.0196102,-0.0339606z"/>
     <path id="_367493672" class="fil2" d="M2.30458 2.11008c0.0556496,0.00154331 0.0701535,-0.0129606 0.0277323,-0.0277323 0.0424213,0.0147717 0.0826535,0.0840118 0.0769213,0.132386 0.00573228,-0.048374 -0.0635079,-0.0886063 -0.132386,-0.0769252 0.068878,-0.0116811 0.0833819,-0.026185 0.0277323,-0.0277283z"/>
     <path id="_367493960" class="fil2" d="M2.19363 2.18892c0.0533543,0.0158976 0.0711181,0.00564173 0.0339646,-0.0196063 0.0371535,0.025248 0.0580945,0.102543 0.0400394,0.147783 0.0180551,-0.0452402 -0.0384173,-0.102024 -0.107969,-0.108567 0.0695512,0.00654331 0.0873189,-0.0037126 0.0339646,-0.0196102z"/>
     <path id="_367493864" class="fil2" d="M2.06607 2.23635c0.0474213,0.0291654 0.0672323,0.0238543 0.0378819,-0.0101496 0.0293504,0.0340039 0.0295709,0.114087 0.00042126,0.15311 0.0291496,-0.0390236 -0.0107008,-0.108488 -0.076185,-0.132807 0.0654843,0.0243189 0.0853031,0.0190118 0.0378819,-0.0101535z"/>
     <path id="_367493240" class="fil2" d="M1.93057 2.24916c0.0382559,0.0404409 0.0587677,0.0404409 0.0392165,0 0.0195512,0.0404409 -0.00096063,0.11785 -0.0392165,0.148 0.0382559,-0.0301496 0.0177402,-0.107559 -0.0392205,-0.148 0.0569606,0.0404409 0.0774764,0.0404409 0.0392205,0z"/>
     <path id="_367493192" class="fil2" d="M1.79637 2.22646c0.0264843,0.0489646 0.0462992,0.0542756 0.0378819,0.0101496 0.00841732,0.044126 -0.0314331,0.113591 -0.076189,0.132811 0.0447559,-0.0192205 0.0449764,-0.0993031 0.000425197,-0.15311 0.0445512,0.0538071 0.0643661,0.0591142 0.0378819,0.0101496z"/>
     <path id="_367492664" class="fil2" d="M1.67262 2.1698c0.0129094,0.0541535 0.0306732,0.0644094 0.0339606,0.0196102 -0.0032874,0.0447992 -0.0597559,0.101583 -0.107965,0.108563 0.0482087,-0.00698031 0.0691457,-0.0842795 0.0400394,-0.147783 0.0291063,0.0635039 0.046874,0.0737638 0.0339646,0.0196102z"/>
     <path id="_367492832" class="fil2" d="M1.56775 2.08304c-0.00154331,0.0556496 0.0129606,0.0701535 0.0277323,0.0277323 -0.0147717,0.0424213 -0.0840118,0.0826535 -0.132386,0.0769213 0.048374,0.00573228 0.0886063,-0.0635118 0.0769252,-0.132386 0.0116811,0.068874 0.026185,0.0833819 0.0277283,0.0277323z"/>
     <path id="_367493024" class="fil2" d="M1.48892 1.97209c-0.0158976,0.0533543 -0.00564173,0.0711142 0.0196063,0.0339646 -0.025248,0.0371496 -0.102543,0.0580945 -0.147783,0.0400354 0.0452402,0.0180591 0.102024,-0.0384134 0.108567,-0.107965 -0.00654331,0.0695512 0.0037126,0.0873189 0.0196102,0.0339646z"/>
     <path id="_367492136" class="fil2" d="M1.44148 1.84452c-0.0291654,0.0474213 -0.0238543,0.0672362 0.0101496,0.0378819 -0.0340039,0.0293543 -0.114087,0.0295748 -0.15311,0.000425197 0.0390236,0.0291496 0.108488,-0.0107008 0.132807,-0.076189 -0.0243189,0.0654882 -0.0190118,0.0853031 0.0101535,0.0378819z"/>
     <path id="_367491920" class="fil2" d="M1.42868 1.70902c-0.0404449,0.0382598 -0.0404449,0.0587717 0,0.0392205 -0.0404449,0.0195512 -0.117854,-0.00096063 -0.148004,-0.0392205 0.0301496,0.0382598 0.107559,0.0177441 0.148004,-0.0392165 -0.0404449,0.0569606 -0.0404449,0.0774764 0,0.0392165z"/>
     <path id="_367492376" class="fil2" d="M1.45138 1.57482c-0.0489646,0.0264882 -0.0542756,0.0462992 -0.0101496,0.0378819 -0.044126,0.00841732 -0.113591,-0.0314291 -0.132811,-0.076185 0.0192205,0.0447559 0.0993031,0.0449764 0.15311,0.00042126 -0.0538071,0.0445551 -0.0591142,0.0643701 -0.0101496,0.0378819z"/>
     <path id="_367492328" class="fil2" d="M1.50804 1.45107c-0.0541535,0.0129134 -0.0644055,0.0306732 -0.0196063,0.0339646 -0.0447992,-0.00329134 -0.101587,-0.0597598 -0.108567,-0.107965 0.00698031,0.0482047 0.0842795,0.0691457 0.147783,0.0400354 -0.0635039,0.0291102 -0.0737638,0.046878 -0.0196102,0.0339646z"/>
     <path id="_367492424" class="fil2" d="M1.5948 1.34621c-0.0556496,-0.00154331 -0.0701535,0.0129606 -0.0277323,0.0277323 -0.0424213,-0.0147717 -0.0826535,-0.0840157 -0.0769213,-0.132386 -0.00573228,0.0483701 0.0635118,0.0886024 0.132386,0.0769213 -0.068874,0.0116811 -0.0833819,0.026189 -0.0277323,0.0277323z"/>
     <path id="_367491224" class="fil2" d="M1.70574 1.26737c-0.0533504,-0.0158937 -0.0711142,-0.0056378 -0.0339646,0.0196102 -0.0371496,-0.025248 -0.0580945,-0.102543 -0.0400354,-0.147783 -0.0180591,0.0452402 0.0384134,0.102024 0.107965,0.108567 -0.0695512,-0.00654331 -0.087315,0.0037126 -0.0339646,0.0196063z"/>
     <path id="_367491080" class="fil2" d="M1.83331 1.21993c-0.0474213,-0.0291614 -0.0672362,-0.0238543 -0.0378819,0.0101535 -0.0293543,-0.0340079 -0.0295748,-0.114087 -0.000425197,-0.15311 -0.0291496,0.0390236 0.0107008,0.108484 0.076189,0.132807 -0.0654882,-0.0243228 -0.0853031,-0.0190118 -0.0378819,0.0101496z"/>
    </g>
    <g>
     <path id="_367491800" class="fil3" d="M1.96881 1.20713c-0.00701969,-0.00742126 -0.013437,-0.0134724 -0.019126,-0.0181693l0 -0.0071811c0.00156693,0.00487402 0.00774803,0.0133268 0.019126,0.0253504zm-0.019126 -0.127146c0.00568898,-0.00819685 0.0121063,-0.0153228 0.019126,-0.0208543 -0.011378,0.00896457 -0.0175551,0.0221102 -0.019126,0.0372205l0 -0.0163661zm0 0.0325472c0.00309055,0.0327047 0.0241417,0.070315 0.0583425,0.0945984 -0.0342008,-0.0242835 -0.055252,-0.0339764 -0.0583425,-0.0290984l0 -0.0655z"/>
     <path id="_367491488" class="fil3" d="M1.94969 2.28283c0.147681,0 0.287819,-0.0580433 0.392228,-0.162457 0.104409,-0.104409 0.162457,-0.244547 0.162457,-0.392228 0,-0.147681 -0.0580472,-0.287819 -0.162457,-0.392228 -0.104409,-0.104413 -0.244547,-0.162461 -0.392228,-0.162461l0 1.10937z"/>
     <path id="_367490864" class="fil3" d="M2.10301 1.22983c-0.0264882,-0.0489685 -0.0462992,-0.0542756 -0.0378819,-0.0101535 -0.00841732,-0.044122 0.0314291,-0.113587 0.076185,-0.132807 -0.0447559,0.0192205 -0.0449764,0.0993031 -0.00042126,0.15311 -0.0445551,-0.0538071 -0.0643701,-0.0591181 -0.0378819,-0.0101496z"/>
     <path id="_367490360" class="fil3" d="M2.22676 1.2865c-0.0129094,-0.0541535 -0.0306732,-0.0644094 -0.0339646,-0.0196102 0.00329134,-0.0447992 0.0597598,-0.101583 0.107965,-0.108563 -0.0482047,0.00698031 -0.0691457,0.0842756 -0.0400354,0.147783 -0.0291102,-0.0635079 -0.046874,-0.0737638 -0.0339646,-0.0196102z"/>
     <path id="_367490672" class="fil3" d="M2.33163 1.37326c0.00154331,-0.0556496 -0.0129606,-0.0701535 -0.0277323,-0.0277323 0.0147717,-0.0424213 0.0840157,-0.0826535 0.132386,-0.0769213 -0.0483701,-0.00573228 -0.0886024,0.0635079 -0.0769213,0.132386 -0.0116811,-0.068878 -0.026189,-0.0833819 -0.0277323,-0.0277323z"/>
     <path id="_367491032" class="fil3" d="M2.41046 1.4842c0.0158937,-0.0533543 0.0056378,-0.0711142 -0.0196102,-0.0339646 0.025248,-0.0371496 0.102543,-0.0580945 0.147783,-0.0400394 -0.0452402,-0.0180551 -0.102024,0.0384173 -0.108567,0.107969 0.00654331,-0.0695512 -0.0037126,-0.0873189 -0.0196063,-0.0339646z"/>
     <path id="_367490648" class="fil3" d="M2.4579 1.61177c0.0291614,-0.0474213 0.0238543,-0.0672323 -0.0101496,-0.037878 0.0340039,-0.0293543 0.114083,-0.0295787 0.15311,-0.000425197 -0.0390276,-0.0291535 -0.108488,0.0107008 -0.132811,0.076185 0.0243228,-0.0654843 0.0190118,-0.0853031 -0.0101496,-0.0378819z"/>
     <path id="_367490048" class="fil3" d="M2.4707 1.74727c0.0404409,-0.0382559 0.0404409,-0.0587677 0,-0.0392165 0.0404409,-0.0195512 0.11785,0.00096063 0.148004,0.0392165 -0.0301535,-0.0382559 -0.107563,-0.0177402 -0.148004,0.0392205 0.0404409,-0.0569606 0.0404409,-0.0774764 0,-0.0392205z"/>
     <path id="_367490288" class="fil3" d="M2.448 1.88147c0.0489685,-0.0264882 0.0542756,-0.0462992 0.0101535,-0.0378819 0.044122,-0.00841732 0.113587,0.0314291 0.132807,0.076185 -0.0192205,-0.0447559 -0.0993031,-0.0449764 -0.15311,-0.000425197 0.0538071,-0.0445512 0.0591181,-0.0643661 0.0101496,-0.037878z"/>
     <path id="_367489952" class="fil3" d="M2.39134 2.00522c0.0541535,-0.0129134 0.0644094,-0.0306772 0.0196102,-0.0339646 0.0447992,0.0032874 0.101583,0.0597598 0.108563,0.107965 -0.00698031,-0.0482047 -0.0842756,-0.0691457 -0.147783,-0.0400354 0.0635079,-0.0291102 0.0737638,-0.046878 0.0196102,-0.0339646z"/>
     <path id="_367490144" class="fil3" d="M2.30458 2.11008c0.0556496,0.00154331 0.0701535,-0.0129606 0.0277323,-0.0277323 0.0424213,0.0147717 0.0826575,0.0840118 0.0769213,0.132386 0.00573622,-0.048374 -0.0635079,-0.0886024 -0.132386,-0.0769252 0.068878,-0.0116772 0.0833819,-0.026185 0.0277323,-0.0277283z"/>
     <path id="_367488872" class="fil3" d="M2.19363 2.18892c0.0533543,0.0158937 0.0711181,0.0056378 0.0339646,-0.0196102 0.0371535,0.025248 0.0580945,0.102543 0.0400394,0.147783 0.0180551,-0.0452402 -0.0384173,-0.102024 -0.107969,-0.108567 0.0695512,0.00654331 0.0873189,-0.0037126 0.0339646,-0.0196063z"/>
     <path id="_367488824" class="fil3" d="M2.06607 2.23635c0.0474213,0.0291654 0.0672323,0.0238583 0.037878,-0.0101496 0.0293543,0.0340079 0.0295787,0.114087 0.000425197,0.15311 0.0291535,-0.0390236 -0.0107008,-0.108484 -0.076185,-0.132807 0.0654843,0.0243228 0.0853031,0.0190118 0.0378819,-0.0101535z"/>
     <path id="_367489352" class="fil3" d="M1.94969 2.26733c0.0253071,0.0209055 0.0360591,0.0148543 0.0200945,-0.0181693 0.0159646,0.0330236 0.0052126,0.090685 -0.0200945,0.12715l0 -0.0163701c0.00053937,-0.00519291 0.000527559,-0.0106181 0,-0.0161811l0 -0.0655c0.000527559,-0.000830709 0.00053937,-0.0020748 0,-0.00374803l0 -0.0071811z"/>
    </g>
   </g>
   <g>
    <path id="_367488800" class="fil4" d="M3.18924 1.65481c0,0 0.196673,-0.343685 0.685638,0.0420315 0.230602,-0.578524 0.572768,-0.37922 0.572768,-0.37922 -0.314799,-0.275492 -0.622787,0.192543 -0.622787,0.192543 0,0 -0.500744,-0.251339 -0.635618,0.144646z"/>
    <polygon id="_367489400" class="fil4" points="3.75081,1.72648 3.75152,1.72689 3.98375,1.66467 3.98416,1.66396 3.83622,1.57854 "/>
    <path id="_367489496" class="fil4" d="M4.81259 1.44474c0,0 0.138445,-0.241933 0.48265,0.0295866 0.162331,-0.407248 0.403197,-0.266949 0.403197,-0.266949 -0.221602,-0.193929 -0.438406,0.135539 -0.438406,0.135539 0,0 -0.352496,-0.176925 -0.447441,0.101823z"/>
    <polygon id="_367489232" class="fil4" points="5.20791,1.49519 5.20841,1.49548 5.37188,1.45168 5.37217,1.45118 5.26804,1.39105 "/>
   </g>
   <g>
    <polygon id="_367488008" class="fil5" points="1.24366,5.90667 2.19668,5.90667 3.1497,5.90667 2.19668,4.06488 1.74574,4.93636 1.83622,4.85147 1.95318,4.97077 2.08418,4.82808 2.19412,4.96843 2.42102,4.72983 2.60498,4.85395 2.19668,4.06488 "/>
    <polygon id="_367488728" class="fil6" points="2.60498,4.85395 2.19668,4.06488 1.74574,4.93636 1.83622,4.85147 1.95318,4.97077 2.08418,4.82808 2.19412,4.96843 2.42102,4.72983 "/>
   </g>
   <g>
    <polygon id="_367488464" class="fil7" points="2.19668,5.90667 3.1497,5.90667 2.19668,4.06488 2.60498,4.85395 2.42102,4.72983 2.19668,4.96573 "/>
    <polygon id="_367488584" class="fil8" points="2.60498,4.85395 2.19668,4.06488 2.19668,4.96573 2.42102,4.72983 "/>
   </g>
   <g>
    <polygon id="_364854416" class="fil9" points="2.4315,5.90667 4.00726,5.90667 5.58301,5.90667 4.00726,3.27494 3.16546,4.68086 3.45065,4.41331 3.62427,4.59039 3.81872,4.37858 3.98191,4.58691 4.31872,4.23275 4.75835,4.52937 4.00726,3.27494 "/>
    <polygon id="_367198552" class="fil6" points="4.75835,4.52937 4.00726,3.27494 3.16546,4.68086 3.45065,4.41331 3.62427,4.59039 3.81872,4.37858 3.98191,4.58691 4.31872,4.23275 "/>
   </g>
   <g>
    <polygon id="_367198480" class="fil10" points="4.00725,5.90667 4.00726,5.90667 5.58301,5.90667 4.00726,3.27494 4.00725,3.27496 4.00726,3.27494 4.75835,4.52937 4.31872,4.23275 4.00725,4.56027 "/>
    <polygon id="_367198576" class="fil8" points="4.75835,4.52937 4.00726,3.27494 4.00725,3.27496 4.00725,4.56027 4.31872,4.23275 "/>
   </g>
   <path id="_367197856" class="fil6" d="M2.16823 2.99352l0.0448583 0c0.00179134,-5.51181e-005 0.00359055,-9.05512e-005 0.00539764,-9.05512e-005 0.0946063,0 0.171299,0.0766929 0.171299,0.171299 0,0.0946102 -0.0766929,0.171303 -0.171299,0.171303 -0.00180709,0 -0.0036063,-3.54331e-005 -0.00539764,-9.44882e-005l-0.869177 0c-0.00179528,5.90551e-005 -0.00359055,9.44882e-005 -0.00539764,9.44882e-005 -0.0946063,0 -0.171303,-0.0766929 -0.171303,-0.171303 0,-0.0515433 0.0227677,-0.0977638 0.0587953,-0.129169 0.012252,-0.126217 0.11863,-0.224874 0.248063,-0.224874 0.0202756,0 0.0399803,0.00243307 0.0588504,0.00700394 0.0387441,-0.0873661 0.12622,-0.148311 0.227949,-0.148311 0.105846,0 0.196272,0.0659843 0.232417,0.159055 0.0883504,0.0108386 0.159161,0.0783622 0.174945,0.165087z"/>
   <path id="_367197448" class="fil6" d="M5.24358 2.32456l0.0560748 0c0.00224016,-7.08661e-005 0.00448819,-0.00011811 0.00674409,-0.00011811 0.11826,0 0.21413,0.0958701 0.21413,0.21413 0,0.11826 -0.0958701,0.21413 -0.21413,0.21413 -0.00225591,0 -0.00450394,-4.72441e-005 -0.00674409,-0.00011811l-1.08648 0c-0.00224409,7.08661e-005 -0.00448819,0.00011811 -0.00674803,0.00011811 -0.11826,0 -0.21413,-0.0958701 -0.21413,-0.21413 0,-0.0644291 0.0284606,-0.122209 0.0734921,-0.161465 0.0153189,-0.157772 0.148295,-0.281094 0.310087,-0.281094 0.0253425,0 0.0499724,0.00303937 0.073563,0.00875197 0.0484291,-0.109209 0.15778,-0.18539 0.284937,-0.18539 0.132311,0 0.245346,0.0824803 0.290528,0.198823 0.110437,0.0135472 0.198953,0.0979528 0.218681,0.206362z"/>
  </g>
 </g>
 <rect class="fil11" width="6.82666" height="6.82666"/>
</svg>
